<svg width="30" height="30" viewBox="0 0 30 30" fill="none" xmlns="http://www.w3.org/2000/svg">
<path d="M14.9997 12.74C14.2947 12.74 13.7018 12.5 13.2209 12.02C12.7401 11.5392 12.4997 10.9458 12.4997 10.24C12.4997 9.535 12.7401 8.94208 13.2209 8.46125C13.7018 7.98042 14.2947 7.74 14.9997 7.74C15.7047 7.74 16.2976 7.98042 16.7784 8.46125C17.2593 8.94208 17.4997 9.535 17.4997 10.24C17.4997 10.945 17.2593 11.5379 16.7784 12.0187C16.2976 12.4996 15.7047 12.74 14.9997 12.74ZM7.04344 16.7313C6.4876 16.7313 6.01219 16.5333 5.61719 16.1375C5.22219 15.7417 5.02427 15.2667 5.02344 14.7125V5.76875C5.02344 5.21292 5.22135 4.7375 5.61719 4.3425C6.01302 3.9475 6.48802 3.75 7.04219 3.75H22.9797C23.5355 3.75 24.0109 3.94792 24.4059 4.34375C24.8009 4.73958 24.9989 5.21458 24.9997 5.76875V14.7113C24.9997 15.2662 24.8018 15.7417 24.4059 16.1375C24.0101 16.5333 23.5351 16.7313 22.9809 16.7313H7.04344ZM8.29344 15.4813H21.7309C21.7309 14.9221 21.9284 14.4454 22.3234 14.0513C22.7193 13.6579 23.1947 13.4613 23.7497 13.4613V7.02C23.1905 7.02 22.7143 6.82208 22.3209 6.42625C21.9276 6.03042 21.7309 5.555 21.7309 5H8.29344C8.29344 5.55917 8.09552 6.03542 7.69969 6.42875C7.30469 6.82292 6.82969 7.02 6.27469 7.02V13.4613C6.83302 13.4613 7.30927 13.6592 7.70344 14.055C8.0976 14.4508 8.29427 14.9258 8.29344 15.48M15.0234 26.25L19.1347 22.14L18.2734 21.2788L15.6484 23.9037V18.9412H14.3747V23.9037L11.7497 21.2788L10.8897 22.14L15.0234 26.25Z" fill="#A0A0A0"/>
</svg>
